<?xml version="1.0" encoding="UTF-8"?>
<svg version="1.1" xmlns="http://www.w3.org/2000/svg" width="500" height="500">
<path d="M0 0 C28.215 -0.0928125 28.215 -0.0928125 57 -0.1875 C62.91035156 -0.21481201 68.82070312 -0.24212402 74.91015625 -0.27026367 C82.20117187 -0.28381348 82.20117187 -0.28381348 85.62866211 -0.28633118 C87.99130963 -0.29089815 90.35395074 -0.30136551 92.71655273 -0.31672668 C118.05485545 -0.47304665 139.37200419 1.29874951 158.8125 19.375 C168.38675646 29.45437311 172.88402217 42.72436419 173.0390625 56.4609375 C172.48123232 68.49413144 169.35348048 78.43676149 162 88 C161.57203125 88.59167969 161.1440625 89.18335938 160.703125 89.79296875 C156.1466714 95.64935175 149.9882524 99.7268296 144 104 C144.72703125 104.37769531 145.4540625 104.75539063 146.203125 105.14453125 C156.78053377 110.93498451 166.73417898 118.48237185 173 129 C173 129.66 173 130.32 173 131 C171.44628906 132.36938477 171.44628906 132.36938477 169.265625 133.94140625 C168.46890381 134.52132324 167.67218262 135.10124023 166.85131836 135.69873047 C165.56366577 136.62129639 165.56366577 136.62129639 164.25 137.5625 C162.50610236 138.82626001 160.76261286 140.09058343 159.01953125 141.35546875 C157.7348999 142.28431885 157.7348999 142.28431885 156.42431641 143.23193359 C152.27783005 146.25598739 148.21568441 149.38902325 144.15234375 152.5234375 C142 154 142 154 140 154 C139.84144531 153.2265625 139.68289062 152.453125 139.51953125 151.65625 C137.50700131 142.67213843 135.3731043 136.07691269 127.625 130.6875 C119.57284782 125.77341707 112.47325957 123.86909659 102.98486328 123.88647461 C101.97405449 123.88625557 101.97405449 123.88625557 100.94282532 123.8860321 C98.73528727 123.88672379 96.52783564 123.89448103 94.3203125 123.90234375 C92.78189134 123.90421058 91.24346958 123.90563323 89.70504761 123.90663147 C85.67075945 123.91043581 81.63650773 123.92024816 77.60223389 123.93133545 C72.75382235 123.94340063 67.90539859 123.94796174 63.05697632 123.95378876 C55.7046256 123.96346115 48.3523547 123.98263223 41 124 C40.67 143.8 40.34 163.6 40 184 C58.81 184 77.62 184 97 184 C97 184.99 97 185.98 97 187 C95.55737305 188.40356445 95.55737305 188.40356445 93.51171875 189.86328125 C92.75246094 190.41306641 91.99320312 190.96285156 91.2109375 191.52929688 C90.37820312 192.11775391 89.54546875 192.70621094 88.6875 193.3125 C86.93080425 194.57917009 85.17429898 195.84610439 83.41796875 197.11328125 C82.51481934 197.75990723 81.61166992 198.4065332 80.68115234 199.07275391 C76.59316837 202.01124831 72.54753212 205.00617301 68.5 208 C66.9169003 209.16698368 65.33356606 210.33364925 63.75 211.5 C62.96625 212.0775 62.1825 212.655 61.375 213.25 C35.25 232.5 35.25 232.5 32.87329102 234.2512207 C31.29560517 235.41375169 29.71796817 236.57634897 28.14038086 237.73901367 C24.09604621 240.71951156 20.05077703 243.69872758 16.00390625 246.67578125 C7.30512624 253.07678641 -1.37848991 259.49514807 -10 266 C-10.66 265.67 -11.32 265.34 -12 265 C-11.31462158 264.31534668 -10.62924316 263.63069336 -9.9230957 262.92529297 C-7.29895655 260.30121136 -4.68148996 257.67054346 -2.06474304 255.03909302 C0.54000831 252.4208424 3.14751694 249.80534463 5.75512695 247.18994141 C7.12224324 245.81779597 8.48846071 244.4447544 9.85375977 243.07080078 C11.84409851 241.06821306 13.83775553 239.06897873 15.83203125 237.0703125 C16.43126907 236.46591339 17.0305069 235.86151428 17.64790344 235.23880005 C21.40062504 231.48559299 25.28159346 227.93782495 29.3066864 224.47799683 C30.58069652 223.36598608 31.80424298 222.19575702 33 221 C22.11 220.67 11.22 220.34 0 220 C0 147.4 0 74.8 0 0 Z M40 36 C40 53.49 40 70.98 40 89 C51.63961018 89.11656021 51.63961018 89.11656021 63.27929688 89.1953125 C68.034608 89.21912037 72.78960779 89.24712447 77.54467773 89.30175781 C81.38320489 89.34557889 85.22139766 89.3692125 89.06015587 89.37950897 C90.51643822 89.38683596 91.97270461 89.40114185 93.42884254 89.42292023 C105.64056133 89.59811102 116.04815208 88.11658057 125.11328125 79.328125 C129.69575488 73.67356127 131.37982728 67.52921823 131 60.3125 C129.87743994 52.58664544 127.08448577 47.17098125 120.93359375 42.31640625 C114.23877796 37.75852156 108.49217832 35.8712553 100.39550781 35.88647461 C99.74143448 35.88632858 99.08736115 35.88618256 98.41346741 35.8860321 C96.25998574 35.88672659 94.10659148 35.89449717 91.953125 35.90234375 C90.45668586 35.90420958 88.96024612 35.90563271 87.46380615 35.90663147 C83.53141585 35.91044365 79.59906268 35.92026283 75.66668701 35.93133545 C70.94514228 35.94337929 66.22358512 35.947958 61.50202942 35.95378876 C54.33466049 35.96347529 47.16737296 35.98264092 40 36 Z " fill="#1F2347" transform="translate(84,97)"/>
<path d="M0 0 C0 3 0 3 -1.48059082 4.84135437 C-2.17342163 5.52752335 -2.86625244 6.21369232 -3.58007812 6.9206543 C-4.75129211 8.0915284 -4.75129211 8.0915284 -5.94616699 9.28605652 C-6.79924438 10.12365005 -7.65232178 10.96124359 -8.53125 11.82421875 C-9.39689575 12.68561966 -10.2625415 13.54702057 -11.15441895 14.43452454 C-13.92934053 17.19261165 -16.71449623 19.94010457 -19.5 22.6875 C-21.37958798 24.5520474 -23.25850326 26.41727319 -25.13671875 28.28320312 C-29.7500265 32.86337826 -34.37178623 37.43489043 -39 42 C-37.87469376 42.01030746 -36.74938751 42.02061493 -35.58998108 42.03123474 C-25.00932836 42.12879191 -14.42873679 42.23150873 -3.84818363 42.33933926 C1.59199386 42.39461469 7.03217668 42.44804194 12.47241211 42.49731445 C17.71790476 42.54489002 22.9633298 42.59723009 28.20874214 42.65294075 C30.21469004 42.67339526 32.22065649 42.69210309 34.22663689 42.70907402 C37.02607849 42.73304977 39.82539103 42.76311325 42.62475586 42.79467773 C43.46272705 42.8004332 44.30069824 42.80618866 45.1640625 42.81211853 C50.88594784 42.88594784 50.88594784 42.88594784 52 44 C52.08857875 46.73870242 52.11530707 49.45274983 52.09765625 52.19140625 C52.09664917 52.91775269 52.09564209 53.64409912 52.09460449 54.39245605 C52.08935716 57.11582001 52.075396 59.83916153 52.0625 62.5625 C52.041875 68.646875 52.02125 74.73125 52 81 C28.9 81 5.8 81 -18 81 C-18 141.06 -18 201.12 -18 263 C-31.2 263 -44.4 263 -58 263 C-58.85343356 258.73283222 -59.12567347 255.30079008 -59.12698364 250.99197388 C-59.12854363 250.29843681 -59.13010362 249.60489975 -59.13171089 248.89034641 C-59.13569061 246.57287191 -59.13254295 244.25546324 -59.12939453 241.93798828 C-59.13074994 240.27375246 -59.13253066 238.60951694 -59.13470459 236.94528198 C-59.13926302 232.42871569 -59.13749569 227.91217225 -59.1343255 223.39560556 C-59.13179287 218.66631414 -59.13414205 213.93702466 -59.13571167 209.20773315 C-59.13753107 201.26364796 -59.13513342 193.31957206 -59.13037109 185.37548828 C-59.12493266 176.19773809 -59.12668901 167.02001013 -59.1321975 157.84226048 C-59.13673961 149.95846178 -59.13737368 142.07466976 -59.13475883 134.19087017 C-59.13320163 129.48410673 -59.13298699 124.77735373 -59.13629532 120.07059097 C-59.13918983 115.64322752 -59.1371693 111.21589263 -59.13140106 106.78853226 C-59.13008178 105.16601102 -59.13045343 103.54348737 -59.13266373 101.9209671 C-59.13540807 99.70127704 -59.13195408 97.48167774 -59.12698364 95.26199341 C-59.12660662 94.02130159 -59.12622959 92.78060978 -59.12584114 91.50232124 C-59 88 -59 88 -58 81 C-74.17 81 -90.34 81 -107 81 C-105.70426824 77.11280471 -103.37310319 75.89247867 -100.125 73.6875 C-98.83877904 72.79189172 -97.55368226 71.89466747 -96.26953125 70.99609375 C-95.57811035 70.51382324 -94.88668945 70.03155273 -94.17431641 69.53466797 C-90.34429819 66.83137867 -86.58065956 64.03854653 -82.8125 61.25 C-81.18101974 60.04423003 -79.54950899 58.83850131 -77.91796875 57.6328125 C-77.10247559 57.02985352 -76.28698242 56.42689453 -75.44677734 55.80566406 C-73.06833728 54.05043131 -70.68546407 52.30142652 -68.30078125 50.5546875 C-58.95528361 43.70327565 -49.70489519 36.74079812 -40.50463867 29.69555664 C-34.99546992 25.48817149 -29.43254169 21.38029556 -23.76806641 17.38500977 C-18.98657043 14.01115045 -14.31466743 10.51042159 -9.64453125 6.984375 C-6.46718409 4.60019131 -3.24719632 2.28779741 0 0 Z " fill="#202448" transform="translate(377,140)"/>
<path d="M0 0 C0.33 0 0.66 0 1 0 C1 12.21 1 24.42 1 37 C-22.1 37 -45.2 37 -69 37 C-69 97.06 -69 157.12 -69 219 C-82.2 219 -95.4 219 -109 219 C-108.505 218.01 -108.505 218.01 -108 217 C-96.12 216.67 -84.24 216.34 -72 216 C-71.25950669 200.14189832 -70.84932713 184.35342024 -70.8671875 168.48046875 C-70.86650925 166.28282155 -70.86553498 164.08517442 -70.86428833 161.88752747 C-70.86282736 157.30171996 -70.86490802 152.71593213 -70.86962891 148.13012695 C-70.8752347 142.42363298 -70.87201706 136.7171867 -70.86616135 131.0106945 C-70.84353244 104.48602893 -71.06863916 77.98217166 -71.73849487 51.46513367 C-71.76296062 50.42920012 -71.78742638 49.39326656 -71.81263351 48.32594109 C-71.85868783 46.38576908 -71.90894916 44.44569095 -71.96403885 42.50575447 C-72.01436909 40.33772064 -72.01306692 38.16857859 -72 36 C-70.12875503 34.12875503 -66.95801522 34.8259501 -64.46069336 34.79467773 C-63.77779739 34.78477814 -63.09490143 34.77487854 -62.39131165 34.76467896 C-60.12419147 34.73298065 -57.85705031 34.70827387 -55.58984375 34.68359375 C-54.02184999 34.6630314 -52.45386187 34.64203512 -50.88587952 34.62062073 C-46.75129752 34.56532576 -42.61666489 34.51594938 -38.48199463 34.46777344 C-33.52517893 34.40879911 -28.56845611 34.34253047 -23.61171722 34.27747345 C-16.0745347 34.17937055 -8.53729364 34.09057857 -1 34 C-0.67 22.78 -0.34 11.56 0 0 Z " fill="#1B1D34" transform="translate(428,184)"/>
<path d="M0 0 C0 3 0 3 -1 5 C-0.01 5 0.98 5 2 5 C0.58871136 8.38745894 -0.96668001 10.00067337 -3.95703125 12.09375 C-4.74013672 12.64933594 -5.52324219 13.20492188 -6.33007812 13.77734375 C-7.14927734 14.34582031 -7.96847656 14.91429687 -8.8125 15.5 C-10.42395126 16.63431764 -12.03464863 17.76970715 -13.64453125 18.90625 C-14.39943848 19.43734375 -15.1543457 19.9684375 -15.93212891 20.515625 C-18.36017217 22.25854154 -20.69760079 24.09456617 -23 26 C-23.66 25.67 -24.32 25.34 -25 25 C-16.66666667 16.66666667 -8.33333333 8.33333333 0 0 Z " fill="#1B1E35" transform="translate(97,337)"/>
<path d="M0 0 C0.33 0 0.66 0 1 0 C1.33 11.55 1.66 23.1 2 35 C6.723125 34.855625 11.44625 34.71125 16.3125 34.5625 C17.79919189 34.51939697 19.28588379 34.47629395 20.81762695 34.43188477 C21.98769287 34.39377686 23.15775879 34.35566895 24.36328125 34.31640625 C26.16212769 34.26141968 26.16212769 34.26141968 27.99731445 34.20532227 C31.04994349 34.12266975 31.04994349 34.12266975 34 33 C34 34.32 34 35.64 34 37 C22.78 37 11.56 37 0 37 C0 24.79 0 12.58 0 0 Z " fill="#1C1F39" transform="translate(84,280)"/>
<path d="M0 0 C17.49 0 34.98 0 53 0 C47.86147632 2.56926184 45.83197325 3.09689641 40.078125 2.9140625 C39.38168884 2.89282318 38.68525269 2.87158386 37.9677124 2.84970093 C36.48474188 2.80335681 35.00185043 2.75442212 33.51904297 2.703125 C31.30060223 2.62674228 29.08203682 2.55871541 26.86328125 2.4921875 C17.88785249 2.20939589 8.95261758 1.71727731 0 1 C0 0.67 0 0.34 0 0 Z " fill="#767687" transform="translate(138,186)"/>
<path d="M0 0 C0 0.66 0 1.32 0 2 C0.73114014 1.96447021 1.46228027 1.92894043 2.21557617 1.89233398 C5.53928478 1.73438861 8.86334989 1.5858505 12.1875 1.4375 C13.33798828 1.38142578 14.48847656 1.32535156 15.67382812 1.26757812 C16.78564453 1.21923828 17.89746094 1.17089844 19.04296875 1.12109375 C20.57473755 1.05039673 20.57473755 1.05039673 22.13745117 0.97827148 C24.90292045 0.99926311 27.31645691 1.35982948 30 2 C30 2.33 30 2.66 30 3 C14.16 3 -1.68 3 -18 3 C-18 2.34 -18 1.68 -18 1 C-15.56257869 0.83210874 -13.12507454 0.66563867 -10.6875 0.5 C-9.99720703 0.45230469 -9.30691406 0.40460938 -8.59570312 0.35546875 C-5.72337641 0.16120511 -2.87986212 0 0 0 Z " fill="#181B31" transform="translate(288,218)"/>
<path d="M0 0 C2.6875 1.4375 2.6875 1.4375 5 3 C2.15372637 4.42313681 -0.2020064 3.65882185 -3.26828003 3.27786255 C-8.46730345 2.74903312 -13.68831459 2.75904725 -18.91015625 2.68359375 C-20.72222816 2.6524221 -20.72222816 2.6524221 -22.57090759 2.62062073 C-26.40138473 2.55562961 -30.23192601 2.49647635 -34.0625 2.4375 C-36.67123039 2.39426674 -39.27995448 2.35065097 -41.88867188 2.30664062 C-48.25904825 2.20000042 -54.62948737 2.09814361 -61 2 C-61 1.67 -61 1.34 -61 1 C-60.28003342 1.00222061 -59.56006683 1.00444122 -58.81828308 1.00672913 C-52.03507913 1.02676166 -45.2518796 1.04198929 -38.46865368 1.05181217 C-34.98128689 1.05703196 -31.49394453 1.06411324 -28.0065918 1.07543945 C-23.99788172 1.08837754 -19.98919733 1.09323569 -15.98046875 1.09765625 C-14.72727341 1.10281754 -13.47407806 1.10797882 -12.1829071 1.11329651 C-11.02193008 1.11337204 -9.86095306 1.11344757 -8.66479492 1.11352539 C-7.12924202 1.11685631 -7.12924202 1.11685631 -5.56266785 1.12025452 C-2.87917228 1.11050834 -2.87917228 1.11050834 0 0 Z " fill="#191B3B" transform="translate(188,130)"/>
<path d="M0 0 C0 3 0 3 -1 5 C-0.01 5 0.98 5 2 5 C0.63016497 8.16115776 0.0109362 8.9927092 -3 11 C-4.32 11 -5.64 11 -7 11 C-6.68232368 5.59950264 -3.80003673 3.47662935 0 0 Z " fill="#191E3B" transform="translate(97,337)"/>
<path d="M0 0 C0.65234375 1.765625 0.65234375 1.765625 1 4 C0.00390625 5.921875 0.00390625 5.921875 -1.4375 7.75 C-1.91058594 8.36359375 -2.38367188 8.9771875 -2.87109375 9.609375 C-3.24363281 10.06828125 -3.61617187 10.5271875 -4 11 C-4.33 10.34 -4.66 9.68 -5 9 C-5.66 9 -6.32 9 -7 9 C-6.67 6.36 -6.34 3.72 -6 1 C-3.525 1.99 -3.525 1.99 -1 3 C-0.67 2.01 -0.34 1.02 0 0 Z " fill="#292C4C" transform="translate(247,178)"/>
<path d="M0 0 C1 2 1 2 0.0625 4.9375 C-0.288125 5.948125 -0.63875 6.95875 -1 8 C-1 8.99 -1 9.98 -1 11 C-1.99 11.66 -2.98 12.32 -4 13 C-5.32 12.34 -6.64 11.68 -8 11 C-7.23439544 9.7260098 -6.46227374 8.45593488 -5.6875 7.1875 C-5.25824219 6.47980469 -4.82898438 5.77210938 -4.38671875 5.04296875 C-3.07493533 3.11039769 -1.70596155 1.58589388 0 0 Z " fill="#282A49" transform="translate(103,331)"/>
<path d="M0 0 C0.33 0.99 0.66 1.98 1 3 C-0.25 5.1875 -0.25 5.1875 -2 7 C-2.99 7 -3.98 7 -5 7 C-5 7.99 -5 8.98 -5 10 C-6.98 10.99 -8.96 11.98 -11 13 C-11 12.01 -11 11.02 -11 10 C-10.34 10 -9.68 10 -9 10 C-8.91878906 9.40703125 -8.83757812 8.8140625 -8.75390625 8.203125 C-7.76881766 5.32442051 -6.40792493 4.47537614 -3.9375 2.75 C-3.20402344 2.22921875 -2.47054688 1.7084375 -1.71484375 1.171875 C-1.14894531 0.78515625 -0.58304687 0.3984375 0 0 Z " fill="#292B49" transform="translate(363,150)"/>
<path d="M0 0 C1.32 0.99 2.64 1.98 4 3 C1.03 5.97 -1.94 8.94 -5 12 C-5.33 10.68 -5.66 9.36 -6 8 C-5.34 7.67 -4.68 7.34 -4 7 C-3.27840576 5.35636866 -2.60648579 3.68949614 -2 2 C-1.34 2 -0.68 2 0 2 C0 1.34 0 0.68 0 0 Z " fill="#1B1E3C" transform="translate(342,171)"/>
<path d="M0 0 C0.33 0.66 0.66 1.32 1 2 C1.99 2.33 2.98 2.66 4 3 C5.60546875 5.06640625 5.60546875 5.06640625 7.1875 7.5625 C7.98220703 8.80193359 7.98220703 8.80193359 8.79296875 10.06640625 C9.19128906 10.70449219 9.58960938 11.34257812 10 12 C9.67 12.66 9.34 13.32 9 14 C8.34 14 7.68 14 7 14 C6.75765625 13.48050781 6.5153125 12.96101562 6.265625 12.42578125 C4.22863922 8.18728392 2.12171172 4.56767054 -1 1 C-0.67 0.67 -0.34 0.34 0 0 Z " fill="#1A1B39" transform="translate(206,138)"/>
<path d="M0 0 C2 2 2 2 2 4 C0.52295788 5.25227484 -0.95827399 6.50166522 -2.4921875 7.68359375 C-4.26762944 9.11764091 -4.26762944 9.11764091 -6 12 C-8.625 12.6875 -8.625 12.6875 -11 13 C-10.278125 12.29875 -9.55625 11.5975 -8.8125 10.875 C-3.81038245 5.88076403 -3.81038245 5.88076403 0 0 Z " fill="#1B1C38" transform="translate(212,170)"/>
<path d="M0 0 C0.33 0.99 0.66 1.98 1 3 C-1.31 4.98 -3.62 6.96 -6 9 C-6.66 8.67 -7.32 8.34 -8 8 C-5.33333333 5.33333333 -2.66666667 2.66666667 0 0 Z " fill="#363744" transform="translate(80,354)"/>
<path d="M0 0 C0.99 0.33 1.98 0.66 3 1 C-1.455 4.465 -1.455 4.465 -6 8 C-6.66 7.67 -7.32 7.34 -8 7 C-5.63707344 4.47411298 -4.33537489 3.11179163 -1 2 C-0.67 1.34 -0.34 0.68 0 0 Z " fill="#1B1D34" transform="translate(161,295)"/>
<path d="M0 0 C0 0.99 0 1.98 0 3 C-4.34285714 7 -4.34285714 7 -7 7 C-5.66667905 3.00003714 -3.5042173 2.16217663 0 0 Z " fill="#313544" transform="translate(377,140)"/>
<path d="M0 0 C0.33 0.66 0.66 1.32 1 2 C1.99 2 2.98 2 4 2 C4 2.66 4 3.32 4 4 C4.66 4.33 5.32 4.66 6 5 C3.36 4.67 0.72 4.34 -2 4 C-1 1 -1 1 0 0 Z " fill="#191C3A" transform="translate(198,217)"/>
<path d="M0 0 C0.33 0.66 0.66 1.32 1 2 C0.67 2.66 0.34 3.32 0 4 C-0.66 4 -1.32 4 -2 4 C-2.33 4.66 -2.66 5.32 -3 6 C-4.32 5.67 -5.64 5.34 -7 5 C-4.69 3.35 -2.38 1.7 0 0 Z " fill="#1F1D3B" transform="translate(319,183)"/>
<path d="" fill="#FFFFFF" transform="translate(0,0)"/>
<path d="" fill="#FFFFFF" transform="translate(0,0)"/>
<path d="" fill="#FFFFFF" transform="translate(0,0)"/>
<path d="" fill="#FFFFFF" transform="translate(0,0)"/>
<path d="" fill="#FFFFFF" transform="translate(0,0)"/>
<path d="" fill="#FFFFFF" transform="translate(0,0)"/>
<path d="" fill="#FFFFFF" transform="translate(0,0)"/>
<path d="" fill="#FFFFFF" transform="translate(0,0)"/>
<path d="" fill="#FFFFFF" transform="translate(0,0)"/>
<path d="" fill="#FFFFFF" transform="translate(0,0)"/>
<path d="" fill="#808080" transform="translate(0,0)"/>
<path d="" fill="#FFFFFF" transform="translate(0,0)"/>
<path d="" fill="#FFFFFF" transform="translate(0,0)"/>
<path d="" fill="#FFFFFF" transform="translate(0,0)"/>
<path d="" fill="#FFFFFF" transform="translate(0,0)"/>
<path d="" fill="#FFFFFF" transform="translate(0,0)"/>
<path d="" fill="#FFFFFF" transform="translate(0,0)"/>
<path d="" fill="#FFFFFF" transform="translate(0,0)"/>
<path d="" fill="#FFFFFF" transform="translate(0,0)"/>
<path d="" fill="#FFFFFF" transform="translate(0,0)"/>
<path d="" fill="#FFFFFF" transform="translate(0,0)"/>
<path d="" fill="#FFFFFF" transform="translate(0,0)"/>
<path d="" fill="#FFFFFF" transform="translate(0,0)"/>
<path d="" fill="#FFFFFF" transform="translate(0,0)"/>
<path d="" fill="#FFFFFF" transform="translate(0,0)"/>
<path d="" fill="#FFFFFF" transform="translate(0,0)"/>
<path d="" fill="#FFFFFF" transform="translate(0,0)"/>
<path d="" fill="#FFFFFF" transform="translate(0,0)"/>
<path d="" fill="#FFFFFF" transform="translate(0,0)"/>
<path d="" fill="#FFFFFF" transform="translate(0,0)"/>
<path d="" fill="#FFFFFF" transform="translate(0,0)"/>
<path d="" fill="#FFFFFF" transform="translate(0,0)"/>
<path d="" fill="#FFFFFF" transform="translate(0,0)"/>
<path d="" fill="#FFFFFF" transform="translate(0,0)"/>
<path d="" fill="#FFFFFF" transform="translate(0,0)"/>
</svg>
